<?xml version="1.0" encoding="UTF-8" standalone="no"?>
<!-- Generator: Adobe Illustrator 17.1.0, SVG Export Plug-In . SVG Version: 6.00 Build 0)  -->

<svg
   xmlns:osb="http://www.openswatchbook.org/uri/2009/osb"
   xmlns:dc="http://purl.org/dc/elements/1.1/"
   xmlns:cc="http://creativecommons.org/ns#"
   xmlns:rdf="http://www.w3.org/1999/02/22-rdf-syntax-ns#"
   xmlns:svg="http://www.w3.org/2000/svg"
   xmlns="http://www.w3.org/2000/svg"
   xmlns:xlink="http://www.w3.org/1999/xlink"
   xmlns:sodipodi="http://sodipodi.sourceforge.net/DTD/sodipodi-0.dtd"
   xmlns:inkscape="http://www.inkscape.org/namespaces/inkscape"
   version="1.1"
   id="Capa_1"
   x="0px"
   y="0px"
   viewBox="0 0 150 150"
   style="enable-background:new 0 0 150 150;"
   xml:space="preserve"
   inkscape:version="0.91 r13725"
   sodipodi:docname="swallow.svg"
   inkscape:export-filename="D:\Developer\推广\Logo\swallow_dark.png"
   inkscape:export-xdpi="90"
   inkscape:export-ydpi="90"><metadata
     id="metadata3403"><rdf:RDF><cc:Work
         rdf:about=""><dc:format>image/svg+xml</dc:format><dc:type
           rdf:resource="http://purl.org/dc/dcmitype/StillImage" /><dc:title /></cc:Work></rdf:RDF></metadata><defs
     id="defs3401"><linearGradient
       inkscape:collect="always"
       id="linearGradient5699"><stop
         style="stop-color:#000000;stop-opacity:1;"
         offset="0"
         id="stop5701" /><stop
         style="stop-color:#000000;stop-opacity:0;"
         offset="1"
         id="stop5703" /></linearGradient><linearGradient
       id="linearGradient5689"
       osb:paint="solid"><stop
         style="stop-color:#000000;stop-opacity:1;"
         offset="0"
         id="stop5691" /></linearGradient><linearGradient
       id="linearGradient5655"
       osb:paint="solid"><stop
         style="stop-color:#ff0000;stop-opacity:0;"
         offset="0"
         id="stop5657" /></linearGradient><radialGradient
       inkscape:collect="always"
       xlink:href="#linearGradient5699"
       id="radialGradient5707"
       cx="124.71745"
       cy="68.03479"
       fx="124.71745"
       fy="68.03479"
       r="1.9606549"
       gradientTransform="matrix(0.86049168,0,0,0.33635085,16.33171,43.915292)"
       gradientUnits="userSpaceOnUse" /></defs><sodipodi:namedview
     pagecolor="#ffffff"
     bordercolor="#666666"
     borderopacity="1"
     objecttolerance="10"
     gridtolerance="10"
     guidetolerance="10"
     inkscape:pageopacity="0"
     inkscape:pageshadow="2"
     inkscape:window-width="1366"
     inkscape:window-height="706"
     id="namedview3399"
     showgrid="false"
     inkscape:object-paths="true"
     inkscape:snap-nodes="false"
     inkscape:zoom="4.4500587"
     inkscape:cx="34.019215"
     inkscape:cy="65.854726"
     inkscape:window-x="-8"
     inkscape:window-y="-8"
     inkscape:window-maximized="1"
     inkscape:current-layer="g3395"
     inkscape:snap-object-midpoints="true" /><g
     id="g3395"><path
       d="m 130.89772,69.254464 c 1.16641,0.224908 3.65605,-0.298512 0.40503,-1.210638 -2.14568,-0.634193 0.23019,0.08803 -1.91889,-0.539052 -1.45635,-0.425337 -1.62483,-0.596386 -2.44483,-1.730029 -0.948,-1.312213 -2.357,-2.23254 -4.312,-2.456359 -2.332,-0.267453 -4.655,-0.633483 -6.998,-0.771653 -2.085,-0.122818 -4.209,0.143018 -6.287,-0.01535 -1.789,-0.136554 -3.554,-0.579346 -5.291,-0.993048 -0.617,-0.147059 -1.266,-0.518745 -1.648,-0.938103 -1.118,-1.22818 -2.208,-2.487065 -3.129,-3.815438 -1.495,-2.156587 -1.304,-4.450536 -0.216,-6.649948 1.04,-2.104066 1.25571,-4.113594 2.41571,-6.180492 0.602,-1.071425 0.53741,-2.000921 1.01041,-3.112747 0.293,-0.687619 -0.80249,-3.25616 -1.36649,-3.832274 C 98.91733,34.794935 98.678895,35.252208 95.911,34.324455 93.484,34.035994 91.051,33.717637 88.607,33.597243 84.363,33.387968 80.11,33.258685 75.859,33.1997 68.207,33.093043 60.65,33.740261 53.29,35.487993 c -2.828,0.671459 -5.572,1.578858 -8.346,2.398183 -0.345,0.10181 -4.766356,3.026901 -5.191356,3.252336 0.277,0.08727 6.597034,-0.474798 6.717034,-0.477222 7.025285,0.262147 6.178773,-1.25194 12.394305,-0.184719 2.954,0.315125 3.963119,1.174851 6.746119,1.971552 0.797,0.22786 2.459491,1.563687 3.256491,1.78993 3.030057,0.01481 6.961214,4.377341 8.215593,7.984145 1.285705,3.69688 -0.730428,7.810237 -1.525576,11.64269 -0.284631,1.371865 -1.42294,2.975484 -1.156983,4.040873 l -1.893695,3.848137 c -3.714,3.125395 -5.599525,5.188285 -10.138525,7.448297 -3.391,1.450384 -7.258695,3.376654 -10.648695,4.827038 C 42.931712,86.94616 35.256,91.61016 26.469,94.527087 c -12.606,4.1847 -11.959,5.823353 0.653,1.637035 2.638,-0.875886 5.277,-1.751773 7.915,-2.626851 3.585,-0.847605 7.17,-1.695211 10.754,-2.543625 0.054,0.0905 0.107,0.180995 0.161,0.272301 -3.053,1.839037 -6.199,3.584345 -9.159,5.517921 -0.523,0.220587 -1.046,0.441983 -1.569,0.66257 -0.125,0.05252 -0.224,0.128475 -0.299,0.218972 -5.75,2.31819 -11.5,4.63557 -17.25,6.95376 -0.52,0.21008 -4.862,2.68341 -4.573,3.04055 0.345,0.42986 5.219,-1.39059 5.738,-1.59986 l 0,-4e-5 3.801,-1.532 c 15.501,-6.248362 31.478695,-11.703043 46.979695,-17.951408 3.374,-0.690851 5.989508,-0.474898 9.384508,-1.1003 1.217069,-0.250343 2.317392,0.292774 2.760695,0.831727 0.801458,0.812712 2.084498,0.523395 2.659492,1.767503 0.657563,1.156961 1.853994,2.510104 2.541796,3.453168 1.119,1.529569 2.4328,2.401686 2.994814,3.957648 2.06897,5.728042 1.526676,12.201592 0.830119,18.251872 -0.319395,2.77426 -1.329061,5.85312 -2.272509,8.06366 -0.48736,2.51323 -2.86191,5.8857 -4.234017,8.04698 -0.956542,1.57565 -1.667407,4.92522 -2.792407,6.21968 -0.554,0.63348 -2.412186,5.22164 -2.944186,5.86644 -0.22,0.26745 -0.334,0.59146 -0.497,0.88962 0.42,-0.002 0.902,0.10504 1.249,-0.0242 3.401,-1.26939 6.641,-2.77633 9.561,-4.67678 2.316,-1.50775 4.661,-3.01712 6.728,-4.73415 2.711,-2.25193 5.325,-4.6081 7.682,-7.10405 2.889,-3.06075 5.452,-6.32189 8.194,-9.47476 0.799,-0.91952 1.811,-1.72107 2.582,-2.65352 1.403,-1.69601 2.739,-3.43001 4.021,-5.18744 0.619,-0.8476 1.101,-1.76793 1.546,-2.68745 0.208,-0.43067 0.133,-0.94457 0.267,-1.40514 0.355,-1.22333 0.844,-2.42484 1.114,-3.65868 0.353,-1.611984 0.4161,-1.336582 0.6381,-2.964728 0.128,-0.935679 -1.14049,-4.16272 -1.97149,-4.750146 -1.523,-1.075465 -2.16361,-1.617674 -3.81561,-2.561434 -2.124,-1.213635 -4.307,-2.364246 -6.09,-3.912399 -2.08,-1.805909 -3.15,-3.914823 -2.762,-6.428552 0.149,-0.965576 0.247,-1.935999 0.365,-2.904807 0.072,-0.594698 0.431,-1.0084 1.072,-1.328373 3.617,-1.805102 7.443,-3.209428 11.522,-4.200052 2.099,-0.509857 4.153,-1.160307 6.182,-1.836614 2.47,-0.823365 1.52626,-1.302369 4.10626,-1.156119"
       id="path3397"
       inkscape:connector-curvature="0"
       sodipodi:nodetypes="ccccccccccccccccccccccccaaccccscccccccccccccccccaaccccccccccccccccccccccccc"
       style="fill:#aa0000" /><ellipse
       style="fill:#ffd5d5"
       id="path5673"
       cx="123.65005"
       cy="66.798851"
       rx="1.629192"
       ry="1.5168339" /><ellipse
       style="fill:#6c5353;stroke:url(#radialGradient5707);stroke-width:0.54586148;stroke-opacity:1"
       id="path5675"
       cx="123.65005"
       cy="66.798851"
       rx="1.2568814"
       ry="0.48633158" /></g></svg>